<svg xmlns="http://www.w3.org/2000/svg" width="24" height="24" viewBox="0 0 24 24">
  <g id="copy-success" transform="translate(-746 -382)">
    <path id="Vector" d="M14,9.1V4.9C14,1.4,12.6,0,9.1,0H4.9C1.4,0,0,1.4,0,4.9V6H3.1C6.6,6,8,7.4,8,10.9V14H9.1C12.6,14,14,12.6,14,9.1Z" transform="translate(754 384)" fill="none" stroke="#154d8a" stroke-linecap="round" stroke-linejoin="round" stroke-width="1.5"/>
    <path id="Vector-2" data-name="Vector" d="M14,9.1V4.9C14,1.4,12.6,0,9.1,0H4.9C1.4,0,0,1.4,0,4.9V9.1C0,12.6,1.4,14,4.9,14H9.1C12.6,14,14,12.6,14,9.1Z" transform="translate(748 390)" fill="none" stroke="#154d8a" stroke-linecap="round" stroke-linejoin="round" stroke-width="1.5"/>
    <path id="Vector-3" data-name="Vector" d="M0,1.95,1.95,3.9,5.84,0" transform="translate(752.08 395.05)" fill="none" stroke="#154d8a" stroke-linecap="round" stroke-linejoin="round" stroke-width="1.5"/>
    <path id="Vector-4" data-name="Vector" d="M0,0H24V24H0Z" transform="translate(746 382)" fill="none" opacity="0"/>
  </g>
</svg>
